<?xml version="1.0" encoding="UTF-8"?>
<svg id="Layer_1" data-name="Layer 1" xmlns="http://www.w3.org/2000/svg" version="1.1" viewBox="0 0 140 140">
  <defs>
    <style>
      .cls-1, .cls-2 {
        opacity: 0.15;
      }

      .cls-2, .cls-3 {
        fill: #231f20;
        stroke-width: 0px;
      }
    </style>
  </defs>
  <g class="cls-1">
    <path class="cls-3" d="M88.7,114.9c-15.6,0-28.3-12.7-28.3-28.2s12.7-28.2,28.3-28.2,28.3,12.7,28.3,28.2-12.7,28.2-28.3,28.2ZM88.7,67.6c-10.6,0-19.2,8.6-19.2,19.1s8.6,19.1,19.2,19.1,19.2-8.6,19.2-19.1-8.6-19.1-19.2-19.1Z"/>
    <path class="cls-3" d="M95.1,86.7l4.5-4.5c1.8-1.8,1.8-4.6,0-6.4s-4.6-1.8-6.4,0l-4.5,4.5-4.5-4.5c-1.8-1.8-4.6-1.8-6.4,0s-1.8,4.6,0,6.4l4.5,4.5-4.5,4.5c-1.8,1.8-1.8,4.6,0,6.4s2.1,1.3,3.2,1.3,2.3-.4,3.2-1.3l4.5-4.5,4.5,4.5c.9.9,2.1,1.3,3.2,1.3s2.3-.4,3.2-1.3c1.8-1.8,1.8-4.6,0-6.4l-4.5-4.5Z"/>
  </g>
  <path class="cls-2" d="M90.7,25h-34.6c-1.3,0-2.6.6-3.5,1.6l-24.6,29.2c-.7.8-1.1,1.9-1.1,3v51.7c0,1.2.5,2.4,1.3,3.3.8.8,2,1.3,3.2,1.3s0,0,0,0l20.2-.4c2.5,0,4.5-2.1,4.4-4.6,0-2.5-2.1-4.5-4.6-4.4l-15.6.3v-45.5l1.4-1.7h9.8c3.7,0,6.7-2.4,7.8-5.6.3-.8.5-1.7.5-2.6v-13.2l2.8-3.3h28v8.2c0,2.5,2.1,4.6,4.6,4.6s4.6-2.1,4.6-4.6v-12.7c0-2.5-2.1-4.6-4.6-4.6h0Z"/>
</svg>
